<svg width="76" height="62" viewBox="0 0 76 62" fill="none" xmlns="http://www.w3.org/2000/svg">
<path d="M24.7001 42.2394C24.4163 42.2394 24.1325 42.281 23.8618 42.3689C22.3228 42.8692 20.7042 43.1901 19.0001 43.1901C17.2961 43.1901 15.6775 42.8692 14.1373 42.3689C13.8666 42.281 13.584 42.2394 13.3002 42.2394C5.93055 42.2394 -0.0389956 48.2381 0.000191838 55.6223C0.0168168 58.7429 2.58062 61.2526 5.70018 61.2526H32.3001C35.4197 61.2526 37.9835 58.7429 38.0001 55.6223C38.0393 48.2381 32.0697 42.2394 24.7001 42.2394ZM19.0001 38.4367C25.2963 38.4367 30.4001 33.3293 30.4001 27.0288C30.4001 20.7283 25.2963 15.6209 19.0001 15.6209C12.704 15.6209 7.60017 20.7283 7.60017 27.0288C7.60017 33.3293 12.704 38.4367 19.0001 38.4367ZM70.3 0.410278H24.7001C21.5568 0.410278 19.0001 3.05431 19.0001 6.30319V11.8182C21.7813 11.8182 24.3558 12.6239 26.6001 13.9334V8.01557H68.4V42.2394H60.8V34.6341H45.6001V42.2394H36.5466C38.8147 44.2227 40.4796 46.8418 41.2598 49.8447H70.3C73.4433 49.8447 76 47.2007 76 43.9518V6.30319C76 3.05431 73.4433 0.410278 70.3 0.410278Z" fill="#FC6648"/>
</svg>
