<svg width="75" height="75" viewBox="0 0 75 75" fill="none" xmlns="http://www.w3.org/2000/svg">
<path d="M44.5021 47.0077L49.3458 42.1621C49.9982 41.5176 50.8236 41.0764 51.7218 40.892C52.62 40.7077 53.5524 40.7882 54.4057 41.1238L60.309 43.4817C61.1713 43.8319 61.9108 44.4296 62.4341 45.1995C62.9574 45.9694 63.2412 46.8771 63.2498 47.8081V58.6243C63.2447 59.2576 63.1117 59.8834 62.8585 60.4639C62.6054 61.0445 62.2374 61.5678 61.7768 62.0023C61.3162 62.4368 60.7724 62.7736 60.1783 62.9924C59.5841 63.2111 58.9519 63.3073 58.3196 63.2752C16.9538 60.701 8.60707 25.6567 7.02855 12.2447C6.95528 11.5861 7.02223 10.9194 7.225 10.2885C7.42777 9.65765 7.76177 9.07687 8.20502 8.5844C8.64827 8.09192 9.19073 7.69892 9.79671 7.43124C10.4027 7.16356 11.0585 7.02727 11.7209 7.03134H22.165C23.097 7.0341 24.0069 7.31573 24.7776 7.84002C25.5483 8.3643 26.1446 9.10726 26.4897 9.97333L28.8467 15.8789C29.1932 16.7292 29.2816 17.6628 29.1009 18.5631C28.9201 19.4634 28.4782 20.2904 27.8304 20.9409L22.9867 25.7865C22.9867 25.7865 25.7762 44.6715 44.5021 47.0077Z" fill="#FC6648"/>
</svg>
