<svg width="79" height="55" viewBox="0 0 79 55" fill="none" xmlns="http://www.w3.org/2000/svg">
<path d="M23.7048 43.2143H47.4028C53.9444 43.2143 59.2517 37.9353 59.2517 31.4286H63.2014C71.9153 31.4286 79 24.3817 79 15.7143C79 7.04688 71.9153 0 63.2014 0H14.8181C13.1765 0 11.8559 1.31362 11.8559 2.94643V31.4286C11.8559 37.9353 17.1632 43.2143 23.7048 43.2143ZM63.2014 7.85714C67.5583 7.85714 71.1007 11.3806 71.1007 15.7143C71.1007 20.048 67.5583 23.5714 63.2014 23.5714H59.2517V7.85714H63.2014ZM69.0888 55H5.96841C0.0933003 55 -1.56062 47.1429 1.52505 47.1429H73.5199C76.6055 47.1429 74.9763 55 69.0888 55Z" fill="#FC6648"/>
</svg>
