<svg width="75" height="75" viewBox="0 0 75 75" fill="none" xmlns="http://www.w3.org/2000/svg">
<path d="M71.25 54.375V20.625C71.25 17.5125 68.7375 15 65.625 15H13.0875C9.97502 15 7.46252 17.5125 7.46252 20.625V54.375C7.46252 57.4875 9.97502 60 13.0875 60H65.625C68.7375 60 71.25 57.4875 71.25 54.375ZM66.3375 20.2125C67.575 21.45 66.9 22.725 66.225 23.3625L51 37.3125L65.625 52.5375C66.075 53.0625 66.375 53.8875 65.85 54.45C65.3625 55.05 64.2375 55.0125 63.75 54.6375L47.3625 40.65L39.3375 47.9625L31.35 40.65L14.9625 54.6375C14.475 55.0125 13.35 55.05 12.8625 54.45C12.3375 53.8875 12.6375 53.0625 13.0875 52.5375L27.7125 37.3125L12.4875 23.3625C11.8125 22.725 11.1375 21.45 12.375 20.2125C13.6125 18.975 14.8875 19.575 15.9375 20.475L39.3375 39.375L62.775 20.475C63.825 19.575 65.1 18.975 66.3375 20.2125Z" fill="#FC6648"/>
</svg>
