<svg width="75" height="75" viewBox="0 0 75 75" fill="none" xmlns="http://www.w3.org/2000/svg">
<path d="M38.3024 14.8385C38.0844 14.6282 37.7944 14.5109 37.4927 14.5109C37.191 14.5109 36.901 14.6282 36.683 14.8385L9.72641 40.8077C9.61193 40.9182 9.52085 41.0509 9.45869 41.1978C9.39652 41.3448 9.36456 41.5029 9.36474 41.6627L9.36035 66.0357C9.36035 67.2889 9.85401 68.4907 10.7327 69.3769C11.6114 70.263 12.8032 70.7609 14.0459 70.7609H28.1172C28.7385 70.7609 29.3344 70.512 29.7738 70.0689C30.2131 69.6258 30.46 69.0249 30.46 68.3983V48.3163C30.46 48.003 30.5834 47.7026 30.8031 47.481C31.0227 47.2595 31.3207 47.135 31.6313 47.135H43.3452C43.6559 47.135 43.9538 47.2595 44.1735 47.481C44.3932 47.7026 44.5166 48.003 44.5166 48.3163V68.3983C44.5166 69.0249 44.7634 69.6258 45.2028 70.0689C45.6421 70.512 46.238 70.7609 46.8594 70.7609H60.9248C62.1675 70.7609 63.3593 70.263 64.238 69.3769C65.1167 68.4907 65.6104 67.2889 65.6104 66.0357V41.6627C65.6105 41.5029 65.5786 41.3448 65.5164 41.1978C65.4542 41.0509 65.3632 40.9182 65.2487 40.8077L38.3024 14.8385Z" fill="#FC6648"/>
<path d="M71.9107 35.7642L60.9537 25.2817V9.375C60.9537 8.7534 60.7067 8.15726 60.2672 7.71772C59.8277 7.27818 59.2315 7.03125 58.6099 7.03125H51.5787C50.9571 7.03125 50.3609 7.27818 49.9214 7.71772C49.4818 8.15726 49.2349 8.7534 49.2349 9.375V14.0625L40.7505 5.9502C39.9566 5.14746 38.7759 4.6875 37.5001 4.6875C36.2286 4.6875 35.0508 5.14746 34.2569 5.95166L3.09966 35.7612C2.18853 36.6401 2.07427 38.0859 2.90338 39.0381C3.11158 39.2784 3.3665 39.4739 3.65264 39.6126C3.93878 39.7512 4.25015 39.8303 4.56779 39.8448C4.88543 39.8593 5.20271 39.809 5.50031 39.6971C5.79792 39.5851 6.06962 39.4137 6.29888 39.1934L36.6944 10.1484C36.9125 9.93982 37.2026 9.82338 37.5045 9.82338C37.8063 9.82338 38.0964 9.93982 38.3145 10.1484L68.7129 39.1934C69.1607 39.6228 69.7605 39.8571 70.3808 39.845C71.0011 39.833 71.5913 39.5754 72.022 39.1289C72.9214 38.1973 72.8467 36.6592 71.9107 35.7642Z" fill="#FC6648"/>
</svg>
