<svg width="324" height="136" viewBox="0 0 324 136" fill="none" xmlns="http://www.w3.org/2000/svg">
<g clip-path="url(#clip0_145_46)">
<path d="M222.844 1.87485C220.6 0.585061 218.229 0 215.912 0C208.652 0 202 5.77747 202 13.8553V49.7833C202 51.8244 203.549 53.5397 205.593 53.7524C207.957 53.9984 210.014 52.1502 210.014 49.7833V13.8553C210.014 10.2253 213.073 7.9781 215.912 7.9781C216.92 7.9781 217.902 8.25068 218.837 8.78256L261.915 33.5479C263.885 34.6848 266.409 33.9335 267.438 31.9124C267.451 31.8858 267.465 31.8659 267.478 31.8393C268.433 29.9711 267.745 27.684 265.922 26.6336L222.844 1.87485ZM317.054 56.0196L292.042 41.6457C290.159 40.562 287.755 41.1736 286.619 43.0219C285.444 44.9366 286.085 47.4298 288.035 48.5534L313.047 62.9339C315.698 64.463 315.986 66.9894 315.986 68.0066C315.986 69.0239 315.698 71.5502 313.047 73.0794L218.837 127.217C217.902 127.749 216.92 128.022 215.912 128.022C213.073 128.022 210.014 125.775 210.014 122.145V80.9511C210.014 78.7505 208.218 76.9621 206.007 76.9621C203.797 76.9621 202 78.7505 202 80.9511V122.145C202 130.223 208.659 136 215.912 136C218.229 136 220.6 135.415 222.844 134.125L317.054 79.9804C326.318 74.6551 326.318 61.3449 317.054 56.0196Z" fill="#FC6648"/>
</g>
<path d="M9.94 86C8.49333 86 7.37333 85.6033 6.58 84.81C5.78667 83.97 5.39 82.8267 5.39 81.38V40.99C5.39 39.4967 5.76333 38.3767 6.51 37.63C7.30333 36.8367 8.42333 36.44 9.87 36.44C11.3167 36.44 12.4133 36.8367 13.16 37.63C13.9533 38.3767 14.35 39.4967 14.35 40.99V78.37H34.65C35.91 78.37 36.8667 78.6967 37.52 79.35C38.22 80.0033 38.57 80.9367 38.57 82.15C38.57 83.3633 38.22 84.32 37.52 85.02C36.8667 85.6733 35.91 86 34.65 86H9.94ZM59.1248 86.7C55.5782 86.7 52.4982 85.9767 49.8848 84.53C47.2715 83.0833 45.2415 81.03 43.7948 78.37C42.3482 75.6633 41.6248 72.49 41.6248 68.85C41.6248 66.0967 42.0215 63.6467 42.8148 61.5C43.6548 59.3067 44.8448 57.44 46.3848 55.9C47.9248 54.3133 49.7682 53.1233 51.9148 52.33C54.0615 51.49 56.4648 51.07 59.1248 51.07C62.6715 51.07 65.7515 51.7933 68.3648 53.24C70.9782 54.6867 73.0082 56.74 74.4548 59.4C75.9015 62.06 76.6248 65.21 76.6248 68.85C76.6248 71.6033 76.2048 74.0767 75.3648 76.27C74.5715 78.4633 73.4048 80.3533 71.8648 81.94C70.3248 83.48 68.4815 84.67 66.3348 85.51C64.1882 86.3033 61.7848 86.7 59.1248 86.7ZM59.1248 80.05C60.8515 80.05 62.3682 79.63 63.6748 78.79C64.9815 77.95 65.9848 76.7133 66.6848 75.08C67.4315 73.4 67.8048 71.3233 67.8048 68.85C67.8048 65.1167 67.0115 62.34 65.4248 60.52C63.8382 58.6533 61.7382 57.72 59.1248 57.72C57.3982 57.72 55.8815 58.14 54.5748 58.98C53.2682 59.7733 52.2415 61.01 51.4948 62.69C50.7948 64.3233 50.4448 66.3767 50.4448 68.85C50.4448 72.5367 51.2382 75.3367 52.8248 77.25C54.4115 79.1167 56.5115 80.05 59.1248 80.05ZM99.6669 86.7C96.0735 86.7 92.9469 85.9767 90.2869 84.53C87.6269 83.0367 85.5735 80.9367 84.1269 78.23C82.6802 75.5233 81.9569 72.35 81.9569 68.71C81.9569 65.9567 82.3535 63.5067 83.1469 61.36C83.9869 59.1667 85.1769 57.3233 86.7169 55.83C88.2569 54.29 90.1235 53.1233 92.3169 52.33C94.5102 51.49 96.9602 51.07 99.6669 51.07C101.207 51.07 102.864 51.28 104.637 51.7C106.457 52.12 108.16 52.82 109.747 53.8C110.494 54.2667 110.984 54.8267 111.217 55.48C111.45 56.1333 111.497 56.81 111.357 57.51C111.217 58.1633 110.914 58.7467 110.447 59.26C110.027 59.7267 109.49 60.03 108.837 60.17C108.184 60.2633 107.46 60.1 106.667 59.68C105.64 59.0733 104.59 58.63 103.517 58.35C102.444 58.0233 101.417 57.86 100.437 57.86C98.8969 57.86 97.5435 58.1167 96.3769 58.63C95.2102 59.0967 94.2069 59.7967 93.3669 60.73C92.5735 61.6167 91.9669 62.7367 91.5469 64.09C91.1269 65.4433 90.9169 67.0067 90.9169 68.78C90.9169 72.2333 91.7335 74.9633 93.3669 76.97C95.0469 78.93 97.4035 79.91 100.437 79.91C101.417 79.91 102.42 79.77 103.447 79.49C104.52 79.21 105.594 78.7667 106.667 78.16C107.46 77.74 108.16 77.6 108.767 77.74C109.42 77.88 109.957 78.2067 110.377 78.72C110.797 79.1867 111.054 79.77 111.147 80.47C111.24 81.1233 111.147 81.7767 110.867 82.43C110.634 83.0833 110.167 83.62 109.467 84.04C107.927 84.9733 106.294 85.65 104.567 86.07C102.84 86.49 101.207 86.7 99.6669 86.7ZM127.929 86.7C125.456 86.7 123.239 86.2333 121.279 85.3C119.366 84.32 117.849 83.0133 116.729 81.38C115.656 79.7467 115.119 77.9033 115.119 75.85C115.119 73.33 115.773 71.3467 117.079 69.9C118.386 68.4067 120.509 67.3333 123.449 66.68C126.389 66.0267 130.333 65.7 135.279 65.7H138.779V70.74H135.349C132.456 70.74 130.146 70.88 128.419 71.16C126.693 71.44 125.456 71.93 124.709 72.63C124.009 73.2833 123.659 74.2167 123.659 75.43C123.659 76.97 124.196 78.23 125.269 79.21C126.343 80.19 127.836 80.68 129.749 80.68C131.289 80.68 132.643 80.33 133.809 79.63C135.023 78.8833 135.979 77.88 136.679 76.62C137.379 75.36 137.729 73.9133 137.729 72.28V64.23C137.729 61.8967 137.216 60.2167 136.189 59.19C135.163 58.1633 133.436 57.65 131.009 57.65C129.656 57.65 128.186 57.8133 126.599 58.14C125.059 58.4667 123.426 59.0267 121.699 59.82C120.813 60.24 120.019 60.3567 119.319 60.17C118.666 59.9833 118.153 59.61 117.779 59.05C117.406 58.4433 117.219 57.79 117.219 57.09C117.219 56.39 117.406 55.7133 117.779 55.06C118.153 54.36 118.783 53.8467 119.669 53.52C121.816 52.6333 123.869 52.0033 125.829 51.63C127.836 51.2567 129.656 51.07 131.289 51.07C134.649 51.07 137.403 51.5833 139.549 52.61C141.743 53.6367 143.376 55.2 144.449 57.3C145.523 59.3533 146.059 62.0133 146.059 65.28V82.08C146.059 83.5267 145.709 84.6467 145.009 85.44C144.309 86.1867 143.306 86.56 141.999 86.56C140.693 86.56 139.666 86.1867 138.919 85.44C138.219 84.6467 137.869 83.5267 137.869 82.08V78.72H138.429C138.103 80.3533 137.449 81.7767 136.469 82.99C135.536 84.1567 134.346 85.0667 132.899 85.72C131.453 86.3733 129.796 86.7 127.929 86.7ZM166.631 86.7C162.757 86.7 159.841 85.6033 157.881 83.41C155.921 81.17 154.941 77.9033 154.941 73.61V40.5C154.941 39.0533 155.314 37.9567 156.061 37.21C156.807 36.4633 157.881 36.09 159.281 36.09C160.681 36.09 161.754 36.4633 162.501 37.21C163.294 37.9567 163.691 39.0533 163.691 40.5V73.19C163.691 75.3367 164.134 76.9233 165.021 77.95C165.954 78.9767 167.261 79.49 168.941 79.49C169.314 79.49 169.664 79.49 169.991 79.49C170.317 79.4433 170.644 79.3967 170.971 79.35C171.624 79.2567 172.067 79.4433 172.301 79.91C172.534 80.33 172.651 81.2167 172.651 82.57C172.651 83.7367 172.417 84.6467 171.951 85.3C171.484 85.9533 170.714 86.35 169.641 86.49C169.174 86.5367 168.684 86.5833 168.171 86.63C167.657 86.6767 167.144 86.7 166.631 86.7Z" fill="#393E45"/>
<path d="M217.372 86.7C212.238 86.7 207.828 85.6733 204.142 83.62C200.502 81.52 197.702 78.58 195.742 74.8C193.782 70.9733 192.802 66.47 192.802 61.29C192.802 57.4167 193.362 53.94 194.482 50.86C195.602 47.7333 197.212 45.0733 199.312 42.88C201.412 40.64 203.978 38.9367 207.012 37.77C210.092 36.5567 213.545 35.95 217.372 35.95C219.938 35.95 222.458 36.2767 224.932 36.93C227.405 37.5833 229.575 38.5167 231.442 39.73C232.422 40.3367 233.075 41.0833 233.402 41.97C233.728 42.81 233.798 43.65 233.612 44.49C233.425 45.2833 233.028 45.96 232.422 46.52C231.862 47.08 231.138 47.4067 230.252 47.5C229.412 47.5467 228.478 47.2433 227.452 46.59C226.005 45.6567 224.442 44.98 222.762 44.56C221.082 44.14 219.378 43.93 217.652 43.93C214.338 43.93 211.538 44.6067 209.252 45.96C206.965 47.3133 205.238 49.2733 204.072 51.84C202.905 54.4067 202.322 57.5567 202.322 61.29C202.322 64.9767 202.905 68.1267 204.072 70.74C205.238 73.3533 206.965 75.3367 209.252 76.69C211.538 78.0433 214.338 78.72 217.652 78.72C219.425 78.72 221.175 78.51 222.902 78.09C224.628 77.6233 226.262 76.9233 227.802 75.99C228.828 75.3833 229.738 75.1267 230.532 75.22C231.372 75.2667 232.072 75.5467 232.632 76.06C233.192 76.5733 233.565 77.2267 233.752 78.02C233.938 78.7667 233.892 79.56 233.612 80.4C233.332 81.1933 232.772 81.8933 231.932 82.5C230.065 83.8533 227.825 84.9033 225.212 85.65C222.645 86.35 220.032 86.7 217.372 86.7ZM254.299 86.7C250.752 86.7 247.672 85.9767 245.059 84.53C242.446 83.0833 240.416 81.03 238.969 78.37C237.522 75.6633 236.799 72.49 236.799 68.85C236.799 66.0967 237.196 63.6467 237.989 61.5C238.829 59.3067 240.019 57.44 241.559 55.9C243.099 54.3133 244.942 53.1233 247.089 52.33C249.236 51.49 251.639 51.07 254.299 51.07C257.846 51.07 260.926 51.7933 263.539 53.24C266.152 54.6867 268.182 56.74 269.629 59.4C271.076 62.06 271.799 65.21 271.799 68.85C271.799 71.6033 271.379 74.0767 270.539 76.27C269.746 78.4633 268.579 80.3533 267.039 81.94C265.499 83.48 263.656 84.67 261.509 85.51C259.362 86.3033 256.959 86.7 254.299 86.7ZM254.299 80.05C256.026 80.05 257.542 79.63 258.849 78.79C260.156 77.95 261.159 76.7133 261.859 75.08C262.606 73.4 262.979 71.3233 262.979 68.85C262.979 65.1167 262.186 62.34 260.599 60.52C259.012 58.6533 256.912 57.72 254.299 57.72C252.572 57.72 251.056 58.14 249.749 58.98C248.442 59.7733 247.416 61.01 246.669 62.69C245.969 64.3233 245.619 66.3767 245.619 68.85C245.619 72.5367 246.412 75.3367 247.999 77.25C249.586 79.1167 251.686 80.05 254.299 80.05Z" fill="#393E45"/>
<path d="M6.272 114.891C5.23733 114.891 4.28267 114.651 3.408 114.171C2.544 113.68 1.856 113.003 1.344 112.139C0.842667 111.264 0.592 110.283 0.592 109.195C0.592 108.107 0.842667 107.131 1.344 106.267C1.856 105.403 2.544 104.731 3.408 104.251C4.28267 103.76 5.23733 103.515 6.272 103.515C7.31733 103.515 8.272 103.76 9.136 104.251C10.0107 104.731 10.6987 105.403 11.2 106.267C11.7013 107.131 11.952 108.107 11.952 109.195C11.952 110.283 11.7013 111.264 11.2 112.139C10.6987 113.003 10.0107 113.68 9.136 114.171C8.272 114.651 7.31733 114.891 6.272 114.891ZM6.272 113.307C7.008 113.307 7.664 113.141 8.24 112.811C8.816 112.469 9.264 111.989 9.584 111.371C9.91467 110.741 10.08 110.016 10.08 109.195C10.08 108.373 9.91467 107.653 9.584 107.035C9.264 106.416 8.816 105.941 8.24 105.611C7.664 105.28 7.008 105.115 6.272 105.115C5.536 105.115 4.88 105.28 4.304 105.611C3.728 105.941 3.27467 106.416 2.944 107.035C2.624 107.653 2.464 108.373 2.464 109.195C2.464 110.016 2.624 110.741 2.944 111.371C3.27467 111.989 3.728 112.469 4.304 112.811C4.88 113.141 5.536 113.307 6.272 113.307ZM18.1271 105.131V108.395H21.9671V109.883H18.1271V113.291H22.4471V114.779H16.3031V103.643H22.4471V105.131H18.1271ZM27.5578 114.891C26.8111 114.891 26.1391 114.763 25.5418 114.507C24.9444 114.24 24.4751 113.867 24.1338 113.387C23.7924 112.907 23.6218 112.347 23.6218 111.707H25.5738C25.6164 112.187 25.8031 112.581 26.1338 112.891C26.4751 113.2 26.9498 113.355 27.5578 113.355C28.1871 113.355 28.6778 113.205 29.0298 112.907C29.3818 112.597 29.5578 112.203 29.5578 111.723C29.5578 111.349 29.4458 111.045 29.2218 110.811C29.0084 110.576 28.7364 110.395 28.4058 110.267C28.0858 110.139 27.6378 110 27.0618 109.851C26.3364 109.659 25.7444 109.467 25.2858 109.275C24.8378 109.072 24.4538 108.763 24.1338 108.347C23.8138 107.931 23.6538 107.376 23.6538 106.683C23.6538 106.043 23.8138 105.483 24.1338 105.003C24.4538 104.523 24.9018 104.155 25.4778 103.899C26.0538 103.643 26.7204 103.515 27.4778 103.515C28.5551 103.515 29.4351 103.787 30.1178 104.331C30.8111 104.864 31.1951 105.6 31.2698 106.539H29.2538C29.2218 106.133 29.0298 105.787 28.6778 105.499C28.3258 105.211 27.8618 105.067 27.2858 105.067C26.7631 105.067 26.3364 105.2 26.0058 105.467C25.6751 105.733 25.5098 106.117 25.5098 106.619C25.5098 106.96 25.6111 107.243 25.8138 107.467C26.0271 107.68 26.2938 107.851 26.6138 107.979C26.9338 108.107 27.3711 108.245 27.9258 108.395C28.6618 108.597 29.2591 108.8 29.7178 109.003C30.1871 109.205 30.5818 109.52 30.9018 109.947C31.2324 110.363 31.3978 110.923 31.3978 111.627C31.3978 112.192 31.2431 112.725 30.9338 113.227C30.6351 113.728 30.1924 114.133 29.6058 114.443C29.0298 114.741 28.3471 114.891 27.5578 114.891ZM40.526 106.971C40.526 107.536 40.3927 108.069 40.126 108.571C39.8593 109.072 39.4327 109.483 38.846 109.803C38.2593 110.112 37.5073 110.267 36.59 110.267H34.574V114.779H32.75V103.659H36.59C37.4433 103.659 38.1633 103.808 38.75 104.107C39.3473 104.395 39.79 104.789 40.078 105.291C40.3767 105.792 40.526 106.352 40.526 106.971ZM36.59 108.779C37.2833 108.779 37.8007 108.624 38.142 108.315C38.4833 107.995 38.654 107.547 38.654 106.971C38.654 105.755 37.966 105.147 36.59 105.147H34.574V108.779H36.59ZM48.1696 112.507H43.5136L42.7136 114.779H40.8096L44.7936 103.643H46.9056L50.8896 114.779H48.9696L48.1696 112.507ZM47.6576 111.019L45.8496 105.851L44.0256 111.019H47.6576ZM56.8939 113.291C57.5659 113.291 58.1579 113.147 58.6699 112.859C59.1819 112.571 59.5819 112.133 59.8699 111.547H62.0619C61.6779 112.528 61.0805 113.307 60.2699 113.883C59.4592 114.448 58.5205 114.773 57.4539 114.859V115.547C58.0725 115.547 58.5739 115.691 58.9579 115.979C59.3419 116.277 59.5339 116.693 59.5339 117.227C59.5339 117.76 59.3419 118.181 58.9579 118.491C58.5739 118.811 58.0885 118.971 57.5019 118.971H55.3899V117.819H57.1339C57.4325 117.819 57.6565 117.776 57.8059 117.691C57.9552 117.605 58.0299 117.451 58.0299 117.227C58.0299 117.003 57.9552 116.848 57.8059 116.763C57.6565 116.677 57.4325 116.635 57.1339 116.635H56.2539V114.843C55.3152 114.747 54.4619 114.448 53.6939 113.947C52.9259 113.445 52.3179 112.784 51.8699 111.963C51.4325 111.131 51.2139 110.208 51.2139 109.195C51.2139 108.107 51.4645 107.131 51.9659 106.267C52.4779 105.403 53.1659 104.731 54.0299 104.251C54.9045 103.76 55.8592 103.515 56.8939 103.515C58.0779 103.515 59.1285 103.808 60.0459 104.395C60.9739 104.971 61.6459 105.792 62.0619 106.859H59.8699C59.5819 106.272 59.1819 105.835 58.6699 105.547C58.1579 105.259 57.5659 105.115 56.8939 105.115C56.1579 105.115 55.5019 105.28 54.9259 105.611C54.3499 105.941 53.8965 106.416 53.5659 107.035C53.2459 107.653 53.0859 108.373 53.0859 109.195C53.0859 110.016 53.2459 110.736 53.5659 111.355C53.8965 111.973 54.3499 112.453 54.9259 112.795C55.5019 113.125 56.1579 113.291 56.8939 113.291ZM68.4689 114.891C67.4342 114.891 66.4795 114.651 65.6049 114.171C64.7409 113.68 64.0529 113.003 63.5409 112.139C63.0395 111.264 62.7889 110.283 62.7889 109.195C62.7889 108.107 63.0395 107.131 63.5409 106.267C64.0529 105.403 64.7409 104.731 65.6049 104.251C66.4795 103.76 67.4342 103.515 68.4689 103.515C69.5142 103.515 70.4689 103.76 71.3329 104.251C72.2075 104.731 72.8955 105.403 73.3969 106.267C73.8982 107.131 74.1489 108.107 74.1489 109.195C74.1489 110.283 73.8982 111.264 73.3969 112.139C72.8955 113.003 72.2075 113.68 71.3329 114.171C70.4689 114.651 69.5142 114.891 68.4689 114.891ZM68.4689 113.307C69.2049 113.307 69.8609 113.141 70.4369 112.811C71.0129 112.469 71.4609 111.989 71.7809 111.371C72.1115 110.741 72.2769 110.016 72.2769 109.195C72.2769 108.373 72.1115 107.653 71.7809 107.035C71.4609 106.416 71.0129 105.941 70.4369 105.611C69.8609 105.28 69.2049 105.115 68.4689 105.115C67.7329 105.115 67.0769 105.28 66.5009 105.611C65.9249 105.941 65.4715 106.416 65.1409 107.035C64.8209 107.653 64.6609 108.373 64.6609 109.195C64.6609 110.016 64.8209 110.741 65.1409 111.371C65.4715 111.989 65.9249 112.469 66.5009 112.811C67.0769 113.141 67.7329 113.307 68.4689 113.307ZM85.044 103.659V105.147H80.324V108.427H84.004V109.915H80.324V114.779H78.5V103.659H85.044ZM87.7584 105.131V108.395H91.5984V109.883H87.7584V113.291H92.0784V114.779H85.9344V103.643H92.0784V105.131H87.7584ZM95.349 103.659V114.779H93.525V103.659H95.349ZM104.128 103.659V105.147H101.168V114.779H99.3438V105.147H96.3678V103.659H104.128ZM110.247 114.891C109.212 114.891 108.258 114.651 107.383 114.171C106.519 113.68 105.831 113.003 105.319 112.139C104.818 111.264 104.567 110.283 104.567 109.195C104.567 108.107 104.818 107.131 105.319 106.267C105.831 105.403 106.519 104.731 107.383 104.251C108.258 103.76 109.212 103.515 110.247 103.515C111.292 103.515 112.247 103.76 113.111 104.251C113.986 104.731 114.674 105.403 115.175 106.267C115.676 107.131 115.927 108.107 115.927 109.195C115.927 110.283 115.676 111.264 115.175 112.139C114.674 113.003 113.986 113.68 113.111 114.171C112.247 114.651 111.292 114.891 110.247 114.891ZM110.247 113.307C110.983 113.307 111.639 113.141 112.215 112.811C112.791 112.469 113.239 111.989 113.559 111.371C113.89 110.741 114.055 110.016 114.055 109.195C114.055 108.373 113.89 107.653 113.559 107.035C113.239 106.416 112.791 105.941 112.215 105.611C111.639 105.28 110.983 105.115 110.247 105.115C109.511 105.115 108.855 105.28 108.279 105.611C107.703 105.941 107.25 106.416 106.919 107.035C106.599 107.653 106.439 108.373 106.439 109.195C106.439 110.016 106.599 110.741 106.919 111.371C107.25 111.989 107.703 112.469 108.279 112.811C108.855 113.141 109.511 113.307 110.247 113.307ZM128.054 106.971C128.054 107.536 127.921 108.069 127.654 108.571C127.387 109.072 126.961 109.483 126.374 109.803C125.787 110.112 125.035 110.267 124.118 110.267H122.102V114.779H120.278V103.659H124.118C124.971 103.659 125.691 103.808 126.278 104.107C126.875 104.395 127.318 104.789 127.606 105.291C127.905 105.792 128.054 106.352 128.054 106.971ZM124.118 108.779C124.811 108.779 125.329 108.624 125.67 108.315C126.011 107.995 126.182 107.547 126.182 106.971C126.182 105.755 125.494 105.147 124.118 105.147H122.102V108.779H124.118ZM135.698 112.507H131.042L130.242 114.779H128.338L132.322 103.643H134.434L138.418 114.779H136.498L135.698 112.507ZM135.186 111.019L133.378 105.851L131.554 111.019H135.186ZM145.126 114.779L142.566 110.331H141.174V114.779H139.35V103.659H143.19C144.043 103.659 144.763 103.808 145.35 104.107C145.947 104.405 146.39 104.805 146.678 105.307C146.977 105.808 147.126 106.368 147.126 106.987C147.126 107.712 146.913 108.373 146.486 108.971C146.07 109.557 145.425 109.957 144.55 110.171L147.302 114.779H145.126ZM141.174 108.875H143.19C143.873 108.875 144.385 108.704 144.726 108.363C145.078 108.021 145.254 107.563 145.254 106.987C145.254 106.411 145.083 105.963 144.742 105.643C144.401 105.312 143.883 105.147 143.19 105.147H141.174V108.875ZM155.363 112.507H150.707L149.907 114.779H148.003L151.987 103.643H154.099L158.083 114.779H156.163L155.363 112.507ZM154.851 111.019L153.043 105.851L151.219 111.019H154.851ZM171.956 103.659L167.78 114.779H165.668L161.476 103.659H163.428L166.724 112.907L170.036 103.659H171.956ZM177.753 114.891C176.719 114.891 175.764 114.651 174.889 114.171C174.025 113.68 173.337 113.003 172.825 112.139C172.324 111.264 172.073 110.283 172.073 109.195C172.073 108.107 172.324 107.131 172.825 106.267C173.337 105.403 174.025 104.731 174.889 104.251C175.764 103.76 176.719 103.515 177.753 103.515C178.799 103.515 179.753 103.76 180.617 104.251C181.492 104.731 182.18 105.403 182.681 106.267C183.183 107.131 183.433 108.107 183.433 109.195C183.433 110.283 183.183 111.264 182.681 112.139C182.18 113.003 181.492 113.68 180.617 114.171C179.753 114.651 178.799 114.891 177.753 114.891ZM177.753 113.307C178.489 113.307 179.145 113.141 179.721 112.811C180.297 112.469 180.745 111.989 181.065 111.371C181.396 110.741 181.561 110.016 181.561 109.195C181.561 108.373 181.396 107.653 181.065 107.035C180.745 106.416 180.297 105.941 179.721 105.611C179.145 105.28 178.489 105.115 177.753 105.115C177.017 105.115 176.361 105.28 175.785 105.611C175.209 105.941 174.756 106.416 174.425 107.035C174.105 107.653 173.945 108.373 173.945 109.195C173.945 110.016 174.105 110.741 174.425 111.371C174.756 111.989 175.209 112.469 175.785 112.811C176.361 113.141 177.017 113.307 177.753 113.307ZM183.82 109.195C183.82 108.107 184.071 107.131 184.572 106.267C185.084 105.403 185.772 104.731 186.636 104.251C187.511 103.76 188.465 103.515 189.5 103.515C190.684 103.515 191.735 103.808 192.652 104.395C193.58 104.971 194.252 105.792 194.668 106.859H192.476C192.188 106.272 191.788 105.835 191.276 105.547C190.764 105.259 190.172 105.115 189.5 105.115C188.764 105.115 188.108 105.28 187.532 105.611C186.956 105.941 186.503 106.416 186.172 107.035C185.852 107.653 185.692 108.373 185.692 109.195C185.692 110.016 185.852 110.736 186.172 111.355C186.503 111.973 186.956 112.453 187.532 112.795C188.108 113.125 188.764 113.291 189.5 113.291C190.172 113.291 190.764 113.147 191.276 112.859C191.788 112.571 192.188 112.133 192.476 111.547H194.668C194.252 112.613 193.58 113.435 192.652 114.011C191.735 114.587 190.684 114.875 189.5 114.875C188.455 114.875 187.5 114.635 186.636 114.155C185.772 113.664 185.084 112.987 184.572 112.123C184.071 111.259 183.82 110.283 183.82 109.195ZM197.827 105.131V108.395H201.667V109.883H197.827V113.291H202.147V114.779H196.003V103.643H202.147V105.131H197.827ZM198.995 101.643L196.707 103.019V101.595L198.995 100.267L201.283 101.595V103.019L198.995 101.643Z" fill="#94959C"/>
<defs>
<clipPath id="clip0_145_46">
<rect width="122" height="136" fill="white" transform="translate(202)"/>
</clipPath>
</defs>
</svg>
