<svg width="75" height="59" viewBox="0 0 75 59" fill="none" xmlns="http://www.w3.org/2000/svg">
<path d="M69.2634 46.6469C72.8437 43.0779 74.9919 38.6002 74.9919 33.7143C74.9919 23.1786 65.0321 14.4734 52.0519 12.9194C47.9509 5.33371 38.3166 0 27.081 0C12.1218 0 0.000876867 9.42946 0.000876867 21.0714C0.000876867 25.9442 2.14906 30.4219 5.72936 34.004C3.73741 38.0471 0.873168 41.1815 0.821091 41.2342C0.00087689 42.1165 -0.23347 43.4071 0.248243 44.5266C0.716937 45.646 1.81056 46.3703 3.00833 46.3703C9.97364 46.3703 15.598 43.71 19.3085 41.2605C20.5062 41.5371 21.7431 41.7478 23.0059 41.9058C27.094 49.4652 36.6892 54.7857 47.9118 54.7857C50.6198 54.7857 53.2237 54.4696 55.6973 53.8902C59.4078 56.3266 65.0191 59 71.9974 59C73.1952 59 74.2758 58.2757 74.7575 57.1562C75.2262 56.0368 75.0049 54.7462 74.1847 53.8638C74.1326 53.8243 71.2553 50.69 69.2634 46.6469ZM18.1237 34.4913L15.8974 35.9531C14.0617 37.1516 12.1869 38.0998 10.2861 38.7714C10.6376 38.1525 10.9891 37.494 11.3276 36.8223L13.3456 32.7266L10.1169 29.5C8.35925 27.7353 6.25013 24.8511 6.25013 21.0714C6.25013 13.0775 15.7933 6.32143 27.081 6.32143C38.3687 6.32143 47.9118 13.0775 47.9118 21.0714C47.9118 29.0654 38.3687 35.8214 27.081 35.8214C24.9328 35.8214 22.7846 35.5712 20.7015 35.0839L18.1237 34.4913ZM64.8759 42.1429L61.6601 45.3563L63.6781 49.452C64.0166 50.1237 64.3682 50.7821 64.7197 51.4011C62.8189 50.7295 60.9441 49.7812 59.1084 48.5828L56.8821 47.121L54.2912 47.7268C52.2082 48.2141 50.06 48.4643 47.9118 48.4643C40.8814 48.4643 34.6061 45.8172 30.8175 41.919C44.006 40.4967 54.161 31.7257 54.161 21.0714C54.161 20.6237 54.109 20.1891 54.0699 19.7545C62.4543 21.6641 68.7426 27.2348 68.7426 33.7143C68.7426 37.494 66.6335 40.3781 64.8759 42.1429Z" fill="#FC6648"/>
</svg>
