<svg width="60" height="60" viewBox="0 0 60 60" fill="none" xmlns="http://www.w3.org/2000/svg">
<path d="M1.27042 29.641C1.26902 34.6821 2.58623 39.6045 5.09088 43.9431L1.03088 58.7668L16.2011 54.7891C20.397 57.0733 25.0982 58.2702 29.8755 58.2705H29.8881C45.659 58.2705 58.4969 45.4373 58.5037 29.6635C58.5067 22.0201 55.5327 14.8326 50.1295 9.42517C44.7272 4.01819 37.5423 1.03889 29.8869 1.0354C14.1141 1.0354 1.27716 13.868 1.27065 29.641" fill="url(#paint0_linear_324_48)" fill-opacity="0.75"/>
<path d="M0.248837 29.6316C0.247209 34.8542 1.61163 39.9526 4.20558 44.4465L0 59.8016L15.7142 55.6814C20.044 58.0421 24.9188 59.2867 29.8793 59.2886H29.8921C46.2288 59.2886 59.5279 45.9937 59.5349 29.6553C59.5377 21.7372 56.4567 14.2914 50.8605 8.69023C45.2635 3.08977 37.8216 0.00325581 29.8921 0C13.5526 0 0.255349 13.293 0.248837 29.6316ZM9.60721 43.6726L9.02046 42.7412C6.55395 38.8193 5.25209 34.2872 5.25395 29.6335C5.25907 16.0533 16.3112 5.00465 29.9014 5.00465C36.4828 5.00744 42.6679 7.57302 47.32 12.2279C51.9719 16.8833 54.5316 23.0716 54.53 29.6535C54.524 43.2337 43.4716 54.2837 29.8921 54.2837H29.8823C25.4607 54.2814 21.1242 53.094 17.3423 50.85L16.4423 50.3163L7.11721 52.7612L9.60721 43.6726Z" fill="url(#paint1_linear_324_48)" fill-opacity="0.75"/>
<path d="M22.4832 17.2438C21.9283 16.0105 21.3444 15.9856 20.8167 15.964C20.3846 15.9454 19.8906 15.9468 19.3972 15.9468C18.9032 15.9468 18.1006 16.1326 17.4223 16.8733C16.7432 17.6147 14.8297 19.4063 14.8297 23.0503C14.8297 26.6942 17.4839 30.2161 17.8539 30.7108C18.2244 31.2045 22.9778 38.9217 30.5062 41.8905C36.763 44.3577 38.0362 43.867 39.3941 43.7433C40.7523 43.6201 43.7765 41.9522 44.3934 40.2226C45.0109 38.4933 45.0109 37.011 44.8258 36.7012C44.6406 36.3926 44.1467 36.2073 43.406 35.837C42.6653 35.4668 39.0237 33.6747 38.3448 33.4275C37.6658 33.1805 37.172 33.0573 36.6781 33.7989C36.1841 34.5394 34.7658 36.2073 34.3334 36.7012C33.9016 37.1963 33.4692 37.258 32.7288 36.8875C31.9876 36.5159 29.6023 35.7347 26.7723 33.2117C24.5704 31.2484 23.0839 28.824 22.6518 28.0824C22.2197 27.3419 22.6055 26.9405 22.9769 26.5715C23.3097 26.2396 23.7179 25.7066 24.0885 25.2742C24.4579 24.8417 24.5811 24.5331 24.8281 24.0391C25.0753 23.5447 24.9516 23.1122 24.7667 22.7417C24.5811 22.3712 23.1418 18.7082 22.4832 17.2438Z" fill="white" fill-opacity="0.75"/>
<defs>
<linearGradient id="paint0_linear_324_48" x1="2874.67" y1="5774.18" x2="2874.67" y2="1.0354" gradientUnits="userSpaceOnUse">
<stop stop-color="#1FAF38"/>
<stop offset="1" stop-color="#60D669"/>
</linearGradient>
<linearGradient id="paint1_linear_324_48" x1="2976.74" y1="5980.16" x2="2976.74" y2="0" gradientUnits="userSpaceOnUse">
<stop stop-color="#F9F9F9"/>
<stop offset="1" stop-color="white"/>
</linearGradient>
</defs>
</svg>
