<svg width="75" height="52" viewBox="0 0 75 52" fill="none" xmlns="http://www.w3.org/2000/svg">
<path d="M74.4035 14.2629C53.6413 -4.75777 21.3503 -4.7508 0.596385 14.2629C-0.184084 14.9779 -0.199319 16.1885 0.555369 16.9302L4.56787 20.8731C5.2874 21.5812 6.44522 21.5963 7.19287 20.9172C24.2929 5.4008 50.7046 5.39732 67.8081 20.9172C68.5558 21.5963 69.7136 21.58 70.4331 20.8731L74.4456 16.9302C75.1992 16.1885 75.1839 14.9779 74.4035 14.2629ZM37.4999 37.1429C33.3573 37.1429 29.9999 40.4683 29.9999 44.5714C29.9999 48.6746 33.3573 52 37.4999 52C41.6425 52 44.9999 48.6746 44.9999 44.5714C44.9999 40.4683 41.6425 37.1429 37.4999 37.1429ZM61.2503 27.4404C47.7433 15.6093 27.2413 15.6221 13.7495 27.4404C12.9409 28.1485 12.9151 29.3777 13.6827 30.1275L17.7187 34.0728C18.4218 34.7599 19.5538 34.8063 20.3026 34.1656C30.1405 25.7423 44.8816 25.7609 54.696 34.1656C55.4449 34.8063 56.5769 34.7611 57.28 34.0728L61.3159 30.1275C62.0847 29.3777 62.0577 28.1473 61.2503 27.4404Z" fill="#FC6648"/>
</svg>
